<?xml version="1.0" standalone="no"?>
<!DOCTYPE svg PUBLIC "-//W3C//DTD SVG 20010904//EN"
 "http://www.w3.org/TR/2001/REC-SVG-20010904/DTD/svg10.dtd">
<svg version="1.0" xmlns="http://www.w3.org/2000/svg"
 width="363.000000pt" height="363.000000pt" viewBox="0 0 363.000000 363.000000"
 preserveAspectRatio="xMidYMid meet">
<metadata>
Created by potrace 1.14, written by Peter Selinger 2001-2017
</metadata>
<g transform="translate(0.000000,363.000000) scale(0.100000,-0.100000)"
fill="#000000" stroke="none">
<path d="M27 2359 c9 -16 26 -39 38 -51 27 -31 69 -95 268 -413 38 -60 221
-268 254 -287 27 -16 117 -98 213 -193 47 -46 228 -143 309 -165 84 -22 270
-12 406 22 44 11 96 23 115 25 19 3 71 16 115 30 78 24 97 32 217 87 55 26
151 37 177 22 24 -15 171 -64 171 -57 0 4 -23 33 -51 64 l-51 57 341 0 c220 0
341 -4 342 -10 2 -11 2 -11 13 -51 17 -59 107 -105 186 -96 89 11 161 77 151
140 -1 8 14 9 127 9 l72 1 1 36 c0 47 0 696 0 739 l-1 32 -828 0 -828 0 -75
25 c-99 34 -244 54 -354 50 -184 -8 -262 -15 -330 -29 -61 -13 -102 -19 -205
-31 -14 -2 -52 -7 -85 -11 -33 -5 -148 -8 -255 -7 -209 1 -275 12 -410 66
l-60 25 17 -29z m378 -254 c102 -46 198 -75 272 -82 l64 -6 -3 -46 c-2 -34 -7
-45 -17 -43 -8 2 -37 7 -64 13 -80 15 -367 172 -367 200 0 13 25 5 115 -36z"/>
</g>
</svg>
