<?xml version="1.0" standalone="no"?>
<!DOCTYPE svg PUBLIC "-//W3C//DTD SVG 20010904//EN"
 "http://www.w3.org/TR/2001/REC-SVG-20010904/DTD/svg10.dtd">
<svg version="1.0" xmlns="http://www.w3.org/2000/svg"
 width="272.000000pt" height="272.000000pt" viewBox="0 0 272.000000 272.000000"
 preserveAspectRatio="xMidYMid meet">
<metadata>
Created by potrace 1.14, written by Peter Selinger 2001-2017
</metadata>
<g transform="translate(0.000000,272.000000) scale(0.100000,-0.100000)"
fill="#000000" stroke="none">
<path d="M1797 2243 c-2 -1 -40 -3 -85 -4 -76 -2 -82 -3 -83 -23 0 -11 -2 -30
-4 -41 -2 -11 -7 -42 -10 -70 -3 -27 -8 -57 -10 -65 -3 -8 -7 -37 -10 -65 -2
-27 -7 -66 -10 -85 -2 -19 -7 -55 -10 -80 -12 -94 -33 -240 -40 -290 -8 -51
-29 -210 -40 -300 -3 -30 -10 -82 -15 -115 -5 -33 -12 -78 -14 -100 -3 -22
-10 -71 -15 -110 -6 -38 -13 -92 -16 -120 -4 -27 -13 -94 -21 -147 -21 -147
-27 -135 69 -138 158 -6 502 -5 562 2 91 11 216 50 280 89 162 97 264 308 253
523 -8 147 -53 224 -161 279 l-48 24 33 25 c87 66 155 158 188 252 29 81 35
120 35 231 0 87 -4 107 -25 149 -46 91 -122 135 -297 174 -36 8 -499 13 -506
5z m367 -273 c67 -22 100 -84 100 -190 0 -63 -9 -103 -34 -154 -46 -97 -132
-146 -261 -151 -44 -1 -81 0 -83 4 -2 3 2 49 9 101 7 52 16 122 20 155 4 33 8
71 10 85 2 14 6 52 10 85 4 33 13 65 20 71 18 13 163 10 209 -6z m-105 -721
c102 -22 154 -81 153 -177 -1 -186 -73 -283 -236 -316 -53 -11 -182 -13 -192
-4 -2 2 2 35 7 73 6 39 12 84 14 100 3 17 7 48 10 70 4 22 8 51 10 65 6 42 13
93 20 140 4 24 9 48 11 52 7 12 145 10 203 -3z"/>
<path d="M670 2232 c-178 -1 -327 -6 -331 -10 -4 -4 -10 -36 -14 -72 -4 -36
-9 -74 -11 -85 -2 -11 -6 -41 -9 -68 -3 -26 -7 -58 -10 -70 -2 -12 -7 -42 -10
-67 -5 -46 -53 -404 -60 -450 -2 -14 -7 -50 -10 -80 -4 -30 -9 -62 -10 -70 -1
-8 -6 -40 -10 -70 -3 -30 -8 -66 -10 -80 -7 -44 -15 -104 -19 -145 -5 -37 -11
-80 -21 -145 -2 -14 -7 -48 -10 -76 -3 -28 -7 -59 -9 -70 -6 -30 -20 -147 -20
-169 -1 -20 5 -20 464 -17 256 2 468 6 472 10 3 4 9 37 12 75 4 37 9 73 11 80
2 6 6 40 10 75 l6 63 -283 -2 -283 -1 1 28 c2 34 12 128 19 164 7 43 16 103
21 150 10 99 17 122 37 119 7 -1 102 -1 213 0 l201 1 12 93 c6 50 14 113 17
140 l6 47 -215 0 -216 0 4 23 c4 21 5 33 21 142 3 28 8 57 9 65 2 8 6 45 10
81 4 36 10 71 14 77 5 8 92 12 279 15 159 1 275 7 281 12 5 6 12 37 16 70 3
33 11 82 16 109 5 27 9 63 9 80 l0 31 -137 0 c-76 0 -284 -1 -463 -3z"/>
</g>
</svg>
